<?xml version="1.0" standalone="no"?>
<!DOCTYPE svg PUBLIC "-//W3C//DTD SVG 20010904//EN"
 "http://www.w3.org/TR/2001/REC-SVG-20010904/DTD/svg10.dtd">
<svg version="1.0" xmlns="http://www.w3.org/2000/svg"
 width="260.000000pt" height="260.000000pt" viewBox="0 0 260.000000 260.000000"
 preserveAspectRatio="xMidYMid meet">
<metadata>
Created by potrace 1.11, written by Peter Selinger 2001-2013
</metadata>
<g transform="translate(0.000000,260.000000) scale(0.100000,-0.100000)"
fill="#000000" stroke="none">
<path d="M167 2433 c-4 -3 -7 -147 -7 -320 l0 -313 320 0 320 0 0 320 0 320
-313 0 c-173 0 -317 -3 -320 -7z m543 -313 l0 -230 -230 0 -230 0 0 223 c0
123 3 227 7 230 3 4 107 7 230 7 l223 0 0 -230z"/>
<path d="M350 2115 l0 -135 135 0 135 0 0 135 0 135 -135 0 -135 0 0 -135z"/>
<path d="M987 2433 c-4 -3 -7 -26 -7 -50 l0 -43 -45 0 -45 0 0 -45 0 -45 90 0
89 0 3 -87 3 -88 43 -3 42 -3 0 135 0 135 -42 3 -43 3 -3 48 -3 47 -38 0 c-21
0 -41 -3 -44 -7z"/>
<path d="M1167 2434 c-4 -4 -7 -25 -7 -46 l0 -38 44 0 45 0 3 -47 3 -48 42 -3
42 -3 3 48 3 48 48 3 48 3 -3 42 -3 42 -131 3 c-71 1 -133 -1 -137 -4z"/>
<path d="M1618 2393 l-3 -48 -87 -3 -87 -3 -3 -42 c-3 -42 -3 -42 -45 -45 -42
-3 -42 -3 -45 -45 l-3 -42 -48 -3 -48 -3 3 -87 3 -87 43 -3 42 -3 0 45 0 46
50 0 50 0 0 -45 0 -45 -45 0 -45 0 0 -45 0 -45 45 0 45 0 0 -45 0 -45 -45 0
-45 0 0 -45 0 -45 45 0 45 0 0 -90 0 -90 90 0 90 0 0 -45 0 -45 46 0 45 0 -3
43 c-3 42 -3 42 -45 45 l-43 3 0 45 0 44 45 0 45 0 0 -45 0 -45 45 0 45 0 0
-95 0 -95 -45 0 -45 0 0 -45 0 -45 -45 0 -45 0 0 -45 0 -45 90 0 90 0 0 -45 0
-45 45 0 45 0 0 -45 0 -45 -90 0 -90 0 0 45 0 45 -90 0 -90 0 0 45 0 45 -45 0
-45 0 0 -46 0 -45 -47 3 -48 3 -3 42 -3 42 48 3 48 3 3 42 3 42 -48 3 -48 3 0
90 0 90 48 3 48 3 -3 42 -3 42 -47 3 -48 3 0 45 0 44 -90 0 -90 0 0 135 0 135
45 0 45 0 0 -45 0 -45 45 0 45 0 0 45 0 45 -45 0 -45 0 0 45 0 45 -90 0 -90 0
0 -135 0 -135 -45 0 -45 0 0 -90 0 -90 -45 0 -45 0 0 45 0 45 -45 0 -45 0 0
45 0 45 -45 0 -45 0 0 -45 0 -45 -45 0 -45 0 0 45 0 45 -45 0 -45 0 0 -90 0
-90 45 0 45 0 0 -45 0 -45 -135 0 -135 0 0 -44 0 -45 42 -3 43 -3 3 -48 3 -48
-48 3 -48 3 -3 43 -3 42 -45 0 -45 0 3 -87 3 -88 48 -3 48 -3 -3 -42 -3 -42
-47 -3 -48 -3 0 45 0 46 -46 0 -45 0 3 -42 c3 -43 3 -43 45 -46 42 -3 42 -3
45 -45 l3 -42 138 -3 137 -3 0 -44 0 -45 45 0 45 0 0 45 0 45 45 0 45 0 0 -45
0 -45 45 0 45 0 0 45 0 45 -45 0 -45 0 0 45 0 45 135 0 135 0 0 45 0 45 -135
0 -135 0 0 -45 0 -45 -45 0 -45 0 0 90 0 90 -45 0 -45 0 0 -90 0 -90 -45 0
-45 0 0 89 0 90 42 3 43 3 3 48 3 47 90 0 89 0 0 45 0 45 45 0 45 0 0 -50 0
-50 -45 0 -45 0 0 -45 0 -45 135 0 135 0 0 45 0 45 -45 0 -45 0 0 50 0 50 90
0 90 0 0 90 0 90 45 0 45 0 0 -90 0 -90 45 0 45 0 0 -95 0 -95 -45 0 -45 0 0
45 0 45 -46 0 -45 0 3 -42 c3 -43 3 -43 46 -46 l42 -3 0 -45 0 -44 -45 0 -45
0 0 -90 0 -90 -90 0 -90 0 0 -90 0 -90 45 0 45 0 0 -90 0 -90 -45 0 -45 0 0
-45 0 -45 45 0 45 0 0 -45 0 -45 -45 0 -45 0 0 -45 0 -45 45 0 45 0 0 45 0 45
45 0 44 0 3 -137 3 -138 88 -3 87 -3 0 46 0 45 -46 0 -45 0 3 48 3 47 42 3 42
3 3 -48 3 -48 93 -3 92 -3 0 -44 0 -45 135 0 135 0 0 90 0 90 -45 0 -45 0 0
50 0 50 45 0 45 0 0 45 0 45 90 0 90 0 0 -45 0 -45 45 0 45 0 0 -45 0 -45 45
0 45 0 0 180 0 180 45 0 45 0 0 45 0 45 45 0 45 0 0 -45 0 -45 50 0 50 0 0
-45 0 -45 45 0 45 0 0 90 0 90 -95 0 -95 0 0 45 0 45 -45 0 -45 0 0 -45 0 -45
-45 0 -45 0 0 90 0 90 -45 0 -45 0 0 45 0 45 90 0 90 0 0 90 0 90 -45 0 -45 0
0 45 0 45 -45 0 -45 0 0 95 0 95 -45 0 -45 0 0 45 0 45 -90 0 -90 0 0 135 0
135 -45 0 -45 0 0 -90 0 -90 -45 0 -45 0 0 90 0 90 -45 0 -45 0 0 44 0 45 43
3 c42 3 42 3 45 45 3 42 3 42 45 45 42 3 42 3 45 46 l3 42 45 0 45 0 -3 138
-3 137 -42 3 -42 3 -3 -48z m2 -188 l0 -45 -45 0 -45 0 0 45 0 45 45 0 45 0 0
-45z m-820 -630 l0 -45 45 0 45 0 0 -45 0 -45 -45 0 -45 0 0 45 0 45 -45 0
-45 0 0 45 0 45 45 0 45 0 0 -45z m1270 -370 l0 -45 -45 0 -45 0 0 -45 0 -45
-45 0 -45 0 0 90 0 90 90 0 90 0 0 -45z m-818 -177 l3 -43 93 -3 92 -3 0 -89
0 -90 45 0 45 0 0 -45 0 -45 45 0 45 0 0 -90 0 -90 -45 0 -45 0 0 -45 0 -45
-44 0 -45 0 -3 -47 -3 -48 -45 0 -45 0 0 45 0 45 48 3 48 3 -3 42 -3 42 -47 3
-48 3 0 45 0 45 -42 -3 c-43 -3 -43 -3 -46 -45 l-3 -43 -90 0 -89 0 0 45 0 45
90 0 90 0 0 45 0 45 -90 0 -90 0 0 45 0 45 -45 0 -45 0 0 45 0 45 45 0 45 0 0
45 0 45 45 0 45 0 0 45 0 45 44 0 45 0 3 -42z m368 -93 l0 -45 -45 0 -45 0 0
45 0 45 45 0 45 0 0 -45z m360 -180 l0 -135 -135 0 -135 0 0 135 0 135 135 0
135 0 0 -135z"/>
<path d="M1160 935 l0 -45 -45 0 -45 0 0 -45 0 -45 90 0 90 0 0 90 0 90 -45 0
-45 0 0 -45z"/>
<path d="M1350 755 l0 -45 45 0 45 0 0 45 0 45 -45 0 -45 0 0 -45z"/>
<path d="M1800 755 l0 -45 45 0 45 0 0 45 0 45 -45 0 -45 0 0 -45z"/>
<path d="M1800 2120 l0 -320 320 0 320 0 -2 318 -3 317 -317 3 -318 2 0 -320z
m548 -2 l2 -228 -230 0 -230 0 0 230 0 230 228 -2 227 -3 3 -227z"/>
<path d="M1980 2115 l0 -135 135 0 135 0 0 135 0 135 -135 0 -135 0 0 -135z"/>
<path d="M890 2025 l0 -45 45 0 45 0 0 45 0 45 -45 0 -45 0 0 -45z"/>
<path d="M890 1845 l0 -45 45 0 45 0 0 45 0 45 -45 0 -45 0 0 -45z"/>
<path d="M160 1575 l0 -135 90 0 90 0 0 45 0 45 -45 0 -45 0 0 90 0 90 -45 0
-45 0 0 -135z"/>
<path d="M350 1666 l0 -46 46 0 45 0 -3 43 c-3 42 -3 42 -45 45 l-43 3 0 -45z"/>
<path d="M1980 1665 l0 -45 45 0 45 0 0 -45 0 -45 45 0 45 0 0 45 0 45 -45 0
-45 0 0 45 0 45 -45 0 -45 0 0 -45z"/>
<path d="M2257 1703 c-4 -3 -7 -44 -7 -89 l0 -83 -42 -3 c-43 -3 -43 -3 -46
-45 l-3 -43 45 0 46 0 0 46 0 45 48 -3 47 -3 3 -42 3 -42 -48 -3 -48 -3 -3
-42 -3 -42 48 -3 48 -3 3 -48 3 -48 42 3 42 3 0 180 0 180 -47 3 -48 3 0 45 0
44 -38 0 c-21 0 -42 -3 -45 -7z"/>
<path d="M2162 1298 c3 -43 3 -43 46 -46 l42 -3 0 45 0 46 -46 0 -45 0 3 -42z"/>
<path d="M2252 1118 l3 -43 90 0 90 0 3 43 3 42 -96 0 -96 0 3 -42z"/>
<path d="M160 935 l0 -45 45 0 45 0 0 45 0 45 -45 0 -45 0 0 -45z"/>
<path d="M2350 935 l0 -45 45 0 45 0 0 45 0 45 -45 0 -45 0 0 -45z"/>
<path d="M162 483 l3 -318 318 -3 317 -2 0 320 0 320 -320 0 -320 0 2 -317z
m548 -3 l0 -230 -227 2 -228 3 -3 228 -2 227 230 0 230 0 0 -230z"/>
<path d="M350 485 l0 -135 135 0 136 0 -3 133 -3 132 -132 3 -133 3 0 -136z"/>
<path d="M2257 613 c-4 -3 -7 -44 -7 -89 l0 -83 -42 -3 c-43 -3 -43 -3 -46
-45 l-3 -43 45 0 46 0 0 45 0 45 45 0 45 0 0 90 0 90 -38 0 c-21 0 -42 -3 -45
-7z"/>
<path d="M2350 396 l0 -46 46 0 45 0 -3 43 c-3 42 -3 42 -45 45 l-43 3 0 -45z"/>
<path d="M1800 295 l0 -45 45 0 45 0 0 -45 0 -45 90 0 90 0 0 45 0 45 -90 0
-90 0 0 45 0 45 -45 0 -45 0 0 -45z"/>
<path d="M2252 253 l3 -88 90 0 90 0 3 42 3 42 -48 3 -48 3 -3 43 -3 42 -45 0
-45 0 3 -87z"/>
<path d="M890 205 l0 -45 45 0 45 0 0 45 0 45 -45 0 -45 0 0 -45z"/>
</g>
</svg>
